<svg width="58" height="60" viewBox="0 0 58 60" fill="none" xmlns="http://www.w3.org/2000/svg">
<g filter="url('#filter0_d_13_461')">
<path d="M39.0625 25.7812H30.75V17.6172C30.75 17.3809 30.5531 17.1875 30.3125 17.1875H27.6875C27.4469 17.1875 27.25 17.3809 27.25 17.6172V25.7812H18.9375C18.6969 25.7812 18.5 25.9746 18.5 26.2109V28.7891C18.5 29.0254 18.6969 29.2188 18.9375 29.2188H27.25V37.3828C27.25 37.6191 27.4469 37.8125 27.6875 37.8125H30.3125C30.5531 37.8125 30.75 37.6191 30.75 37.3828V29.2188H39.0625C39.3031 29.2188 39.5 29.0254 39.5 28.7891V26.2109C39.5 25.9746 39.3031 25.7812 39.0625 25.7812Z" fill="#2E2E2E"></path>
<path d="M29 3.4375C15.4703 3.4375 4.5 14.2119 4.5 27.5C4.5 40.7881 15.4703 51.5625 29 51.5625C42.5297 51.5625 53.5 40.7881 53.5 27.5C53.5 14.2119 42.5297 3.4375 29 3.4375ZM29 47.4805C17.7672 47.4805 8.65625 38.5322 8.65625 27.5C8.65625 16.4678 17.7672 7.51953 29 7.51953C40.2328 7.51953 49.3438 16.4678 49.3438 27.5C49.3438 38.5322 40.2328 47.4805 29 47.4805Z" fill="#2E2E2E"></path>
</g>
<defs>
<filter id="filter0_d_13_461" x="-3" y="0" width="64" height="63" filterUnits="userSpaceOnUse" color-interpolation-filters="sRGB">
<feFlood flood-opacity="0" result="BackgroundImageFix"></feFlood>
<feColorMatrix in="SourceAlpha" type="matrix" values="0 0 0 0 0 0 0 0 0 0 0 0 0 0 0 0 0 0 127 0" result="hardAlpha"></feColorMatrix>
<feOffset dy="4"></feOffset>
<feGaussianBlur stdDeviation="2"></feGaussianBlur>
<feComposite in2="hardAlpha" operator="out"></feComposite>
<feColorMatrix type="matrix" values="0 0 0 0 0 0 0 0 0 0 0 0 0 0 0 0 0 0 0.25 0"></feColorMatrix>
<feBlend mode="normal" in2="BackgroundImageFix" result="effect1_dropShadow_13_461"></feBlend>
<feBlend mode="normal" in="SourceGraphic" in2="effect1_dropShadow_13_461" result="shape"></feBlend>
</filter>
</defs>
</svg>
